<svg height="512pt" viewBox="0 -4 512.00006 512" width="512pt" xmlns="http://www.w3.org/2000/svg"><path d="m477.886719 155.828125-222.804688 221.90625-64.242187-63.984375c-7.804688-7.769531-20.421875-7.769531-28.226563 0l-156.710937 156.078125c-12.59375 12.542969-3.707032 34.171875 14.113281 34.171875h471.984375c11.046875 0 20-8.953125 20-20v-314c0-17.769531-21.535156-26.703125-34.113281-14.171875zm-5.886719 308.171875h-403.558594l108.285156-107.851562 64.242188 63.984374c7.800781 7.773438 20.421875 7.773438 28.226562 0l202.804688-201.988281zm40-443.894531v75.945312c0 11.046875-8.953125 20-20 20s-19.996094-8.953125-19.996094-20v-27.894531l-202.808594 202.082031c-7.800781 7.777344-20.425781 7.777344-28.230468 0l-64.238282-64.007812-142.59375 142.082031c-7.824218 7.796875-20.484374 7.773438-28.28125-.050781-7.796874-7.824219-7.773437-20.488281.050782-28.285157l156.707031-156.148437c7.804687-7.777344 20.429687-7.777344 28.234375 0l64.238281 64.007813 188.402344-187.730469h-27.480469c-11.046875 0-20-8.953125-20-20s8.953125-20 20-20h73.957032c11.847656-1.207031 22.082031 8.09375 22.039062 19.964843zm0 0"/></svg>