<?xml version="1.0" encoding="UTF-8"?>
<svg xmlns="http://www.w3.org/2000/svg" xmlns:xlink="http://www.w3.org/1999/xlink" viewBox="0 0 17 17" width="17px" height="17px">
<g id="surface12637668">
<path style=" stroke:none;fill-rule:nonzero;fill:rgb(100%,100%,100%);fill-opacity:1;" d="M 8.5 17 C 3.804688 17 0 13.195312 0 8.5 C 0 3.804688 3.804688 0 8.5 0 C 13.195312 0 17 3.804688 17 8.5 C 17 13.195312 13.195312 17 8.5 17 Z M 8.5 17 "/>
<path style=" stroke:none;fill-rule:nonzero;fill:rgb(0%,0%,0%);fill-opacity:1;" d="M 12.539062 3.503906 C 12.402344 3.511719 12.269531 3.550781 12.15625 3.59375 L 12.152344 3.59375 C 12.035156 3.640625 11.476562 3.878906 10.625 4.234375 C 9.773438 4.59375 8.671875 5.058594 7.578125 5.519531 C 5.390625 6.441406 3.238281 7.347656 3.238281 7.347656 L 3.265625 7.335938 C 3.265625 7.335938 3.117188 7.386719 2.960938 7.492188 C 2.882812 7.542969 2.796875 7.613281 2.71875 7.726562 C 2.644531 7.835938 2.582031 8.007812 2.605469 8.183594 C 2.640625 8.480469 2.835938 8.660156 2.972656 8.757812 C 3.113281 8.859375 3.25 8.90625 3.25 8.90625 L 5.269531 9.585938 C 5.359375 9.875 5.882812 11.597656 6.007812 11.996094 C 6.082031 12.230469 6.15625 12.378906 6.246094 12.492188 C 6.289062 12.550781 6.339844 12.601562 6.402344 12.640625 C 6.425781 12.652344 6.453125 12.664062 6.476562 12.675781 C 6.484375 12.679688 6.492188 12.679688 6.503906 12.683594 L 6.484375 12.675781 C 6.488281 12.679688 6.492188 12.683594 6.5 12.683594 C 6.515625 12.691406 6.527344 12.691406 6.546875 12.695312 C 6.867188 12.792969 7.125 12.59375 7.125 12.59375 L 7.136719 12.582031 L 8.328125 11.5 L 10.324219 13.027344 L 10.367188 13.046875 C 10.785156 13.230469 11.207031 13.128906 11.429688 12.949219 C 11.652344 12.769531 11.738281 12.539062 11.738281 12.539062 L 11.753906 12.5 L 13.296875 4.601562 C 13.339844 4.40625 13.351562 4.226562 13.304688 4.046875 C 13.253906 3.871094 13.128906 3.703125 12.980469 3.613281 C 12.828125 3.523438 12.679688 3.496094 12.539062 3.503906 Z M 12.5 4.351562 C 12.496094 4.375 12.5 4.375 12.488281 4.421875 L 12.488281 4.429688 L 10.960938 12.246094 C 10.957031 12.257812 10.945312 12.28125 10.914062 12.304688 C 10.882812 12.332031 10.855469 12.347656 10.722656 12.292969 L 8.28125 10.421875 L 6.808594 11.765625 L 7.117188 9.789062 C 7.117188 9.789062 10.941406 6.226562 11.105469 6.070312 C 11.269531 5.917969 11.214844 5.886719 11.214844 5.886719 C 11.226562 5.699219 10.964844 5.832031 10.964844 5.832031 L 5.9375 8.945312 L 5.9375 8.9375 L 3.527344 8.125 C 3.523438 8.125 3.519531 8.125 3.519531 8.125 C 3.519531 8.125 3.53125 8.117188 3.53125 8.117188 L 3.546875 8.113281 L 3.558594 8.109375 C 3.558594 8.109375 5.710938 7.199219 7.898438 6.28125 C 8.992188 5.820312 10.097656 5.355469 10.945312 4.996094 C 11.792969 4.640625 12.421875 4.378906 12.457031 4.363281 C 12.488281 4.351562 12.472656 4.351562 12.5 4.351562 Z M 12.5 4.351562 "/>
</g>
</svg>
