<svg data-v-423bf9ae="" xmlns="http://www.w3.org/2000/svg" viewBox="0 0 327 90" class="iconLeft"><!----><!----><!----><g data-v-423bf9ae="" id="ef035e49-d552-4b37-a4ea-2372a06d39de" fill="black" transform="matrix(4.2857139937731885,0,0,4.2857139937731885,108.20000301364348,0.2142862787051527)"><path d="M0.42 14.43L0.42 14.43L0.42 14.01L0.42 14.01Q0.42 13.80 0.63 13.80L0.63 13.80L0.72 13.80L0.72 13.80Q1.67 13.75 1.67 12.47L1.67 12.47L1.67 6.32L1.67 6.32Q1.67 4.98 0.66 4.98L0.66 4.98L0.64 4.98L0.64 4.98Q0.43 4.98 0.43 4.77L0.43 4.77L0.43 4.35L0.43 4.35Q0.43 4.14 0.64 4.14L0.64 4.14L5.78 4.14L5.78 4.14Q6.61 4.14 7.32 4.38L7.32 4.38L7.32 4.38Q8.03 4.62 8.50 5.02L8.50 5.02L8.50 5.02Q8.98 5.43 9.25 5.97L9.25 5.97L9.25 5.97Q9.52 6.51 9.52 7.10L9.52 7.10L9.52 7.10Q9.52 7.87 9.11 8.53L9.11 8.53L9.11 8.53Q8.71 9.19 7.85 9.60L7.85 9.60L9.38 12.47L9.38 12.47Q9.52 12.73 9.56 12.80L9.56 12.80L9.56 12.80Q9.60 12.87 9.73 13.08L9.73 13.08L9.73 13.08Q9.86 13.30 9.94 13.37L9.94 13.37L9.94 13.37Q10.02 13.45 10.16 13.58L10.16 13.58L10.16 13.58Q10.30 13.70 10.45 13.75L10.45 13.75L10.45 13.75Q10.60 13.79 10.77 13.80L10.77 13.80L10.86 13.80L10.86 13.80Q11.06 13.80 11.06 14.01L11.06 14.01L11.06 14.43L11.06 14.43Q11.06 14.64 10.86 14.64L10.86 14.64L6.55 14.64L6.55 14.64Q6.34 14.64 6.34 14.43L6.34 14.43L6.34 14.01L6.34 14.01Q6.34 13.80 6.55 13.80L6.55 13.80L6.64 13.80L6.64 13.80Q6.97 13.78 7.15 13.60L7.15 13.60L7.15 13.60Q7.33 13.41 7.33 13.12L7.33 13.12L7.33 13.12Q7.33 12.81 7.14 12.47L7.14 12.47L5.87 10.10L5.87 10.10Q5.44 10.14 4.95 10.14L4.95 10.14L3.90 10.14L3.90 12.47L3.90 12.47Q3.90 13.75 4.85 13.80L4.85 13.80L4.94 13.80L4.94 13.80Q5.15 13.80 5.15 14.01L5.15 14.01L5.15 14.43L5.15 14.43Q5.15 14.64 4.94 14.64L4.94 14.64L0.63 14.64L0.63 14.64Q0.42 14.64 0.42 14.43ZM3.90 4.98L3.90 9.15L4.72 9.15L4.72 9.15Q6.08 9.15 6.75 8.61L6.75 8.61L6.75 8.61Q7.42 8.07 7.42 7.10L7.42 7.10L7.42 7.10Q7.42 6.12 6.82 5.55L6.82 5.55L6.82 5.55Q6.22 4.98 5.17 4.98L5.17 4.98L3.90 4.98ZM11.03 11.08L11.03 11.08L11.03 11.08Q11.03 10.33 11.22 9.71L11.22 9.71L11.22 9.71Q11.41 9.10 11.73 8.69L11.73 8.69L11.73 8.69Q12.04 8.29 12.48 8.01L12.48 8.01L12.48 8.01Q12.91 7.73 13.38 7.61L13.38 7.61L13.38 7.61Q13.85 7.49 14.36 7.49L14.36 7.49L14.36 7.49Q14.90 7.49 15.37 7.67L15.37 7.67L15.37 7.67Q15.85 7.85 16.18 8.13L16.18 8.13L16.18 8.13Q16.52 8.42 16.76 8.78L16.76 8.78L16.76 8.78Q17.00 9.14 17.12 9.50L17.12 9.50L17.12 9.50Q17.24 9.86 17.24 10.19L17.24 10.19L17.24 10.19Q17.24 10.31 17.12 10.36L17.12 10.36L13.06 12.14L13.06 12.14Q13.33 12.79 13.87 13.22L13.87 13.22L13.87 13.22Q14.40 13.64 15.16 13.64L15.16 13.64L15.16 13.64Q15.63 13.64 16.11 13.38L16.11 13.38L16.11 13.38Q16.59 13.13 16.95 12.61L16.95 12.61L16.95 12.61Q16.99 12.55 17.06 12.55L17.06 12.55L17.06 12.55Q17.16 12.55 17.62 12.82L17.62 12.82L17.62 12.82Q17.68 12.86 17.68 12.93L17.68 12.93L17.68 12.93Q17.68 13.02 17.59 13.18L17.59 13.18L17.59 13.18Q16.71 14.81 14.79 14.81L14.79 14.81L14.79 14.81Q13.66 14.81 12.79 14.30L12.79 14.30L12.79 14.30Q11.92 13.79 11.47 12.94L11.47 12.94L11.47 12.94Q11.03 12.10 11.03 11.08ZM13.11 9.05L13.11 9.05L13.11 9.05Q12.76 9.50 12.76 10.20L12.76 10.20L12.76 10.20Q12.76 10.90 12.89 11.27L12.89 11.27L15.14 10.13L15.14 10.13Q15.14 9.47 14.82 9.03L14.82 9.03L14.82 9.03Q14.51 8.59 14.02 8.59L14.02 8.59L14.02 8.59Q13.45 8.59 13.11 9.05ZM17.81 17.23L17.81 16.81L17.81 16.81Q17.81 16.60 18.04 16.60L18.04 16.60L18.04 16.60Q18.54 16.60 18.80 16.24L18.80 16.24L18.80 16.24Q19.05 15.89 19.05 15.33L19.05 15.33L19.05 15.33Q19.05 15.30 19.05 15.27L19.05 15.27L19.06 15.00L19.06 10.46L19.06 10.46Q19.06 10.19 19.05 10.01L19.05 10.01L19.05 10.01Q19.04 9.82 18.99 9.60L18.99 9.60L18.99 9.60Q18.94 9.37 18.86 9.23L18.86 9.23L18.86 9.23Q18.77 9.09 18.61 8.98L18.61 8.98L18.61 8.98Q18.46 8.87 18.23 8.85L18.23 8.85L18.23 8.85Q18.05 8.83 18.07 8.67L18.07 8.67L18.07 8.20L18.07 8.20Q18.07 8.01 18.27 8.01L18.27 8.01L18.27 8.01Q18.92 8.01 19.43 7.92L19.43 7.92L19.43 7.92Q19.95 7.83 20.18 7.75L20.18 7.75L20.18 7.75Q20.41 7.66 20.84 7.47L20.84 7.47L20.84 7.47Q20.90 7.44 20.96 7.44L20.96 7.44L20.99 7.44L20.99 7.44Q21.01 7.44 21.01 7.49L21.01 7.49L20.86 8.74L20.86 8.74Q20.91 8.60 21.00 8.46L21.00 8.46L21.00 8.46Q21.08 8.31 21.26 8.12L21.26 8.12L21.26 8.12Q21.44 7.93 21.66 7.79L21.66 7.79L21.66 7.79Q21.88 7.65 22.23 7.55L22.23 7.55L22.23 7.55Q22.58 7.44 22.99 7.44L22.99 7.44L22.99 7.44Q23.39 7.44 23.80 7.56L23.80 7.56L23.80 7.56Q24.21 7.68 24.63 7.97L24.63 7.97L24.63 7.97Q25.05 8.25 25.37 8.66L25.37 8.66L25.37 8.66Q25.69 9.08 25.89 9.72L25.89 9.72L25.89 9.72Q26.09 10.36 26.09 11.14L26.09 11.14L26.09 11.14Q26.09 12.07 25.82 12.80L25.82 12.80L25.82 12.80Q25.55 13.52 25.09 13.95L25.09 13.95L25.09 13.95Q24.63 14.38 24.06 14.60L24.06 14.60L24.06 14.60Q23.48 14.81 22.83 14.81L22.83 14.81L22.83 14.81Q21.76 14.81 21.01 14.16L21.01 14.16L21.01 15.27L21.01 15.27Q21.01 15.87 21.27 16.24L21.27 16.24L21.27 16.24Q21.54 16.60 22.04 16.60L22.04 16.60L22.04 16.60Q22.24 16.60 22.24 16.81L22.24 16.81L22.24 17.23L22.24 17.23Q22.24 17.45 22.04 17.45L22.04 17.45L18.03 17.45L18.03 17.45Q17.81 17.45 17.81 17.23L17.81 17.23ZM21.01 9.60L21.01 12.15L21.01 12.15Q21.09 12.87 21.50 13.38L21.50 13.38L21.50 13.38Q21.92 13.90 22.57 13.90L22.57 13.90L22.57 13.90Q22.96 13.90 23.27 13.77L23.27 13.77L23.27 13.77Q23.58 13.64 23.77 13.42L23.77 13.42L23.77 13.42Q23.95 13.21 24.08 12.90L24.08 12.90L24.08 12.90Q24.20 12.60 24.25 12.28L24.25 12.28L24.25 12.28Q24.29 11.96 24.29 11.59L24.29 11.59L24.29 11.59Q24.29 10.26 23.76 9.47L23.76 9.47L23.76 9.47Q23.23 8.68 22.36 8.68L22.36 8.68L22.36 8.68Q22.07 8.68 21.82 8.78L21.82 8.78L21.82 8.78Q21.57 8.87 21.43 9.01L21.43 9.01L21.43 9.01Q21.29 9.15 21.18 9.28L21.18 9.28L21.18 9.28Q21.08 9.41 21.04 9.51L21.04 9.51L21.01 9.60ZM26.37 14.43L26.37 14.43L26.37 14.01L26.37 14.01Q26.37 13.80 26.58 13.80L26.58 13.80L26.58 13.80Q27.08 13.79 27.34 13.43L27.34 13.43L27.34 13.43Q27.60 13.07 27.60 12.52L27.60 12.52L27.60 12.52Q27.60 12.50 27.60 12.47L27.60 12.47L27.60 7.23L27.60 7.23Q27.60 6.88 27.57 6.66L27.57 6.66L27.57 6.66Q27.55 6.43 27.47 6.18L27.47 6.18L27.47 6.18Q27.40 5.93 27.22 5.78L27.22 5.78L27.22 5.78Q27.04 5.64 26.77 5.61L26.77 5.61L26.77 5.61Q26.59 5.59 26.61 5.43L26.61 5.43L26.61 4.96L26.61 4.96Q26.61 4.87 26.65 4.84L26.65 4.84L26.65 4.84Q26.69 4.81 26.80 4.77L26.80 4.77L26.80 4.77Q28.36 4.25 29.44 3.47L29.44 3.47L29.44 3.47Q29.48 3.45 29.50 3.45L29.50 3.45L29.53 3.45L29.53 3.45Q29.55 3.45 29.57 3.47L29.57 3.47L29.57 12.47L29.57 12.47Q29.57 13.06 29.83 13.43L29.83 13.43L29.83 13.43Q30.10 13.80 30.59 13.80L30.59 13.80L30.59 13.80Q30.80 13.80 30.80 14.01L30.80 14.01L30.80 14.43L30.80 14.43Q30.80 14.64 30.59 14.64L30.59 14.64L26.58 14.64L26.58 14.64Q26.37 14.64 26.37 14.43ZM31.27 14.43L31.27 14.43L31.27 14.01L31.27 14.01Q31.27 13.80 31.48 13.80L31.48 13.80L31.50 13.80L31.50 13.80Q32.00 13.79 32.27 13.43L32.27 13.43L32.27 13.43Q32.52 13.07 32.52 12.52L32.52 12.52L32.52 12.52Q32.52 12.50 32.52 12.47L32.52 12.47L32.52 10.99L32.52 10.99Q32.52 10.70 32.49 10.49L32.49 10.49L32.49 10.49Q32.47 10.29 32.40 10.05L32.40 10.05L32.40 10.05Q32.32 9.81 32.14 9.67L32.14 9.67L32.14 9.67Q31.96 9.53 31.69 9.50L31.69 9.50L31.69 9.50Q31.51 9.48 31.53 9.32L31.53 9.32L31.53 8.85L31.53 8.85Q31.53 8.76 31.57 8.73L31.57 8.73L31.57 8.73Q31.62 8.70 31.73 8.66L31.73 8.66L31.73 8.66Q33.52 8.06 34.30 7.24L34.30 7.24L34.30 7.24Q34.34 7.21 34.36 7.21L34.36 7.21L34.40 7.21L34.40 7.21Q34.41 7.21 34.43 7.23L34.43 7.23L34.43 12.47L34.43 12.47Q34.43 13.06 34.69 13.43L34.69 13.43L34.69 13.43Q34.96 13.80 35.46 13.80L35.46 13.80L35.49 13.80L35.49 13.80Q35.70 13.80 35.70 14.01L35.70 14.01L35.70 14.43L35.70 14.43Q35.70 14.53 35.64 14.59L35.64 14.59L35.64 14.59Q35.57 14.64 35.46 14.64L35.46 14.64L31.51 14.64L31.51 14.64Q31.40 14.64 31.34 14.59L31.34 14.59L31.34 14.59Q31.27 14.53 31.27 14.43ZM32.40 5.33L32.40 5.33L32.40 5.33Q32.40 4.98 32.74 4.63L32.74 4.63L32.74 4.63Q33.09 4.29 33.45 4.29L33.45 4.29L33.45 4.29Q33.80 4.29 34.15 4.63L34.15 4.63L34.15 4.63Q34.50 4.99 34.50 5.33L34.50 5.33L34.50 5.33Q34.50 5.68 34.15 6.04L34.15 6.04L34.15 6.04Q33.80 6.38 33.45 6.38L33.45 6.38L33.45 6.38Q33.09 6.38 32.74 6.04L32.74 6.04L32.74 6.04Q32.40 5.69 32.40 5.33ZM36.02 10.81L36.02 10.81L36.02 10.81Q36.09 9.97 36.43 9.31L36.43 9.31L36.43 9.31Q36.76 8.65 37.27 8.26L37.27 8.26L37.27 8.26Q37.77 7.88 38.35 7.68L38.35 7.68L38.35 7.68Q38.94 7.48 39.55 7.48L39.55 7.48L39.81 7.49L39.81 7.49Q40.99 7.57 41.59 8.11L41.59 8.11L41.59 8.11Q42.19 8.64 42.36 9.41L42.36 9.41L42.36 9.47L42.36 9.47Q42.36 9.61 42.20 9.65L42.20 9.65L40.59 10.08L40.59 10.08Q40.52 10.10 40.47 10.10L40.47 10.10L40.47 10.10Q40.41 10.10 40.38 10.08L40.38 10.08L40.38 10.08Q40.35 10.06 40.36 10.01L40.36 10.01L40.37 9.86L40.37 9.86Q40.38 9.79 40.38 9.71L40.38 9.71L40.38 9.71Q40.38 9.21 40.13 8.93L40.13 8.93L40.13 8.93Q39.84 8.60 39.23 8.59L39.23 8.59L39.23 8.59Q38.60 8.59 38.25 9.09L38.25 9.09L38.25 9.09Q37.91 9.58 37.84 10.36L37.84 10.36L37.84 10.36Q37.81 10.72 37.81 10.89L37.81 10.89L37.81 10.89Q37.81 11.44 37.91 11.90L37.91 11.90L37.91 11.90Q38.01 12.37 38.23 12.75L38.23 12.75L38.23 12.75Q38.45 13.13 38.83 13.35L38.83 13.35L38.83 13.35Q39.21 13.58 39.72 13.58L39.72 13.58L39.72 13.58Q39.81 13.58 39.98 13.56L39.98 13.56L39.98 13.56Q40.41 13.52 40.83 13.27L40.83 13.27L40.83 13.27Q41.24 13.01 41.54 12.56L41.54 12.56L41.54 12.56Q41.61 12.46 41.71 12.46L41.71 12.46L41.71 12.46Q41.77 12.46 41.83 12.50L41.83 12.50L42.20 12.76L42.20 12.76Q42.36 12.87 42.28 13.04L42.28 13.04L42.28 13.04Q41.56 14.56 39.73 14.75L39.73 14.75L39.73 14.75Q39.54 14.77 39.35 14.77L39.35 14.77L39.35 14.77Q38.58 14.77 37.92 14.43L37.92 14.43L37.92 14.43Q37.26 14.10 36.83 13.54L36.83 13.54L36.83 13.54Q36.39 12.99 36.18 12.27L36.18 12.27L36.18 12.27Q36.00 11.71 36.00 11.13L36.00 11.13L36.00 11.13Q36.00 10.97 36.02 10.81ZM42.96 11.13L42.96 11.13L42.96 11.13Q42.96 10.19 43.23 9.47L43.23 9.47L43.23 9.47Q43.50 8.75 43.96 8.32L43.96 8.32L43.96 8.32Q44.43 7.90 45.00 7.68L45.00 7.68L45.00 7.68Q45.58 7.46 46.23 7.46L46.23 7.46L46.23 7.46Q47.61 7.46 48.50 8.28L48.50 8.28L48.50 8.28Q48.67 8.21 48.81 8.15L48.81 8.15L48.81 8.15Q48.95 8.08 49.07 8.01L49.07 8.01L49.07 8.01Q49.20 7.94 49.28 7.90L49.28 7.90L49.28 7.90Q49.36 7.85 49.47 7.78L49.47 7.78L49.47 7.78Q49.58 7.71 49.62 7.69L49.62 7.69L49.62 7.69Q49.66 7.66 49.77 7.58L49.77 7.58L49.77 7.58Q49.88 7.50 49.89 7.49L49.89 7.49L49.89 7.49Q49.93 7.46 49.95 7.46L49.95 7.46L49.98 7.46L49.98 7.46Q50.00 7.46 50.00 7.49L50.00 7.49L50.00 12.05L50.00 12.05Q50.00 12.34 50.04 12.54L50.04 12.54L50.04 12.54Q50.07 12.75 50.16 12.95L50.16 12.95L50.16 12.95Q50.24 13.15 50.41 13.27L50.41 13.27L50.41 13.27Q50.58 13.39 50.83 13.42L50.83 13.42L50.83 13.42Q51.00 13.44 50.99 13.60L50.99 13.60L50.99 14.08L50.99 14.08Q50.99 14.26 50.78 14.26L50.78 14.26L50.78 14.26Q50.14 14.26 49.63 14.35L49.63 14.35L49.63 14.35Q49.11 14.44 48.87 14.53L48.87 14.53L48.87 14.53Q48.62 14.62 48.21 14.80L48.21 14.80L48.21 14.80Q48.15 14.83 48.09 14.83L48.09 14.83L48.06 14.83L48.06 14.83Q48.04 14.83 48.04 14.78L48.04 14.78L48.20 13.54L48.20 13.54Q48.13 13.72 48.00 13.90L48.00 13.90L48.00 13.90Q47.87 14.09 47.62 14.31L47.62 14.31L47.62 14.31Q47.38 14.54 46.97 14.68L46.97 14.68L46.97 14.68Q46.57 14.83 46.06 14.83L46.06 14.83L46.06 14.83Q45.66 14.83 45.25 14.71L45.25 14.71L45.25 14.71Q44.84 14.59 44.42 14.30L44.42 14.30L44.42 14.30Q44.00 14.01 43.68 13.60L43.68 13.60L43.68 13.60Q43.36 13.19 43.16 12.55L43.16 12.55L43.16 12.55Q42.96 11.91 42.96 11.13ZM44.76 10.68L44.76 10.68L44.76 10.68Q44.76 12.01 45.29 12.80L45.29 12.80L45.29 12.80Q45.83 13.59 46.70 13.59L46.70 13.59L46.70 13.59Q46.99 13.59 47.23 13.49L47.23 13.49L47.23 13.49Q47.48 13.40 47.62 13.27L47.62 13.27L47.62 13.27Q47.76 13.13 47.87 13.00L47.87 13.00L47.87 13.00Q47.97 12.86 48.01 12.76L48.01 12.76L48.04 12.67L48.04 9.86L48.04 9.86Q48.00 9.61 47.90 9.39L47.90 9.39L47.90 9.39Q47.81 9.16 47.64 8.92L47.64 8.92L47.64 8.92Q47.47 8.68 47.17 8.54L47.17 8.54L47.17 8.54Q46.87 8.39 46.48 8.39L46.48 8.39L46.48 8.39Q46.09 8.39 45.79 8.52L45.79 8.52L45.79 8.52Q45.48 8.65 45.29 8.87L45.29 8.87L45.29 8.87Q45.10 9.08 44.98 9.38L44.98 9.38L44.98 9.38Q44.86 9.68 44.81 9.99L44.81 9.99L44.81 9.99Q44.76 10.31 44.76 10.68Z"></path></g><!----><g data-v-423bf9ae="" id="acb692b3-66f4-4334-bbe7-85fc41424505" transform="matrix(2.8125,0,0,2.8125,0,0)" stroke="none" fill="black"><path d="M16 32c8.837 0 16-7.163 16-16S24.837 0 16 0 0 7.163 0 16s7.163 16 16 16zM14.817 6.421h2v8.886h8.887v2H14.817V6.421zm-5.959.437h2v14.283h14.283v2H8.858V6.858z"></path></g><!----></svg>